<svg xmlns="http://www.w3.org/2000/svg" version="1.1" x="0" y="0" viewBox="0 0 64 80" xml:space="preserve">
  <path d="M62.992 24.992h-62a1 1 0 1 1 0-2h62a1 1 0 1 1 0 2z"/>
  <path d="M63.008 28.992h-62a1 1 0 1 1 0-2h62a1 1 0 1 1 0 2z"/>
  <path d="M63.008 28.992a1 1 0 0 1-1-1v-4a1 1 0 1 1 2 0v4a1 1 0 0 1-1 1z"/>
  <path d="M62.009 59.998a1 1 0 0 1-1-1V27.992a1 1 0 1 1 2 0v31.006a1 1 0 0 1-1 1z"/>
  <path d="M2.007 59.998a1 1 0 0 1-1-1V27.992a1 1 0 1 1 2 0v31.006a1 1 0 0 1-1 1z"/>
  <path d="M1.008 28.992a1 1 0 0 1-1-1v-4a1 1 0 1 1 2 0v4a1 1 0 0 1-1 1z"/>
  <path d="M39.009 40.998h-14a1 1 0 0 1-1-1v-4a1 1 0 0 1 1-1h14a1 1 0 0 1 1 1v4a1 1 0 0 1-1 1zm-13-2h12v-2h-12v2z"/>
  <path d="M32.002 59.998a1 1 0 0 1-1-1v-19a1 1 0 1 1 2 0v19a1 1 0 0 1-1 1z"/>
  <path d="M37.007 51.992h-9.996a1 1 0 1 1 0-2h9.996a1 1 0 1 1 0 2z"/>
  <path d="M57.015 40.998h-14a1 1 0 0 1-1-1v-4a1 1 0 0 1 1-1h14a1 1 0 0 1 1 1v4a1 1 0 0 1-1 1zm-13-2h12v-2h-12v2z"/>
  <path d="M50.008 59.998a1 1 0 0 1-1-1v-19a1 1 0 1 1 2 0v19a1 1 0 0 1-1 1z"/>
  <path d="M55.013 51.992h-9.996a1 1 0 1 1 0-2h9.996a1 1 0 1 1 0 2z"/>
  <path d="M21.003 40.998h-14a1 1 0 0 1-1-1v-4a1 1 0 0 1 1-1h14a1 1 0 0 1 1 1v4a1 1 0 0 1-1 1zm-13-2h12v-2h-12v2z"/>
  <path d="M13.996 59.998a1 1 0 0 1-1-1v-19a1 1 0 1 1 2 0v19a1 1 0 0 1-1 1z"/>
  <path d="M19.001 51.992H9.005a1 1 0 1 1 0-2h9.996a1 1 0 1 1 0 2z"/>
  <path d="M63.008 60.002h-62a1 1 0 1 1 0-2h62a1 1 0 1 1 0 2z"/>
  <path d="M22.005 24.992a1 1 0 0 1-1-1V13a1 1 0 1 1 2 0v10.992a1 1 0 0 1-1 1z"/>
  <path d="M33.006 24.992a1 1 0 0 1-1-1V13a1 1 0 1 1 2 0v10.992a1 1 0 0 1-1 1z"/>
  <path d="M22.005 14a1 1 0 0 1-1-1c0-1.654 1.346-3 3-3a1 1 0 1 1 0 2 1 1 0 0 0-1 1 1 1 0 0 1-1 1z"/>
  <path d="M33.006 14a1 1 0 0 1-1-1 1 1 0 0 0-1-1 1 1 0 1 1 0-2c1.654 0 3 1.346 3 3a1 1 0 0 1-1 1z"/>
  <path d="M26.005 12a1 1 0 0 1-1-1V4.998a1 1 0 1 1 2 0V11a1 1 0 0 1-1 1z"/>
  <path d="M28.989 12a1 1 0 0 1-1-1V4.998a1 1 0 1 1 2 0V11a1 1 0 0 1-1 1z"/>
  <path d="M31.006 12h-2.017a1 1 0 1 1 0-2h2.017a1 1 0 1 1 0 2z"/>
  <path d="M26.005 12h-2a1 1 0 1 1 0-2h2a1 1 0 1 1 0 2z"/>
  <path d="M28.989 5.998h-2.984a1 1 0 1 1 0-2h2.984a1 1 0 1 1 0 2z"/>
  <path d="M33.006 16H22.005a1 1 0 1 1 0-2h11.001a1 1 0 1 1 0 2z"/>
  <path d="M22.005 21.002a1 1 0 1 1 0-2L33.006 19a1 1 0 1 1 0 2l-11.001.002z"/>
  <path d="M28.989 9h-2.984a1 1 0 1 1 0-2h2.984a1 1 0 1 1 0 2z"/>
  <path d="M37.004 24.992a1 1 0 0 1-1-1v-5.99a1 1 0 1 1 2 0v5.99a1 1 0 0 1-1 1z"/>
  <path d="M42.004 24.992a1 1 0 0 1-1-1v-5.99a1 1 0 1 1 2 0v5.99a1 1 0 0 1-1 1z"/>
  <path d="M42.004 19.002h-5a1 1 0 1 1 0-2h5a1 1 0 1 1 0 2z"/>
  <path d="M42.004 21.996h-5a1 1 0 1 1 0-2h5a1 1 0 1 1 0 2z"/>
</svg>
